<svg xmlns="http://www.w3.org/2000/svg" width="184" height="24" viewBox="0 0 184 24" fill="none" style="color:#F9E0C0">
  <path fill-rule="evenodd" clip-rule="evenodd" d="M66.4402 6.00976C63.891 6.00976 61.9706 7.13536 61.1102 9.15496C60.3486 6.70496 58.5276 6.00976 56.3098 6.00976C53.893 6.00976 52.1382 7.03596 51.2444 8.88996V6.47316H48V21.5366H51.6416L51.7078 13.3594C51.741 10.3138 53.3962 9.22096 55.1178 9.22096C56.773 9.22096 57.965 9.94936 57.998 13.1608L58.0642 21.5366H61.7058V13.3594C61.739 10.3138 63.4274 9.22096 65.182 9.22096C66.771 9.22096 67.963 9.94936 67.996 13.1608L68.0624 21.5366H71.704V12.6972C71.704 7.30096 69.4528 6.00976 66.4402 6.00976Z" fill="currentColor"/>
  <path fill-rule="evenodd" clip-rule="evenodd" d="M83.5242 18.59C80.975 18.59 79.0878 16.703 79.154 13.9884C79.2202 11.3398 80.975 9.41964 83.5242 9.41964C86.1064 9.41964 87.8612 11.3068 87.8942 13.9884C87.9606 16.703 86.1064 18.59 83.5242 18.59ZM83.5242 6.00984C78.8892 6.00984 75.38 9.15484 75.38 14.0546C75.38 18.9212 78.823 22 83.5242 22C88.2254 22 91.6684 18.9212 91.6684 14.0546C91.6684 9.15484 88.159 6.00984 83.5242 6.00984Z" fill="currentColor"/>
  <path fill-rule="evenodd" clip-rule="evenodd" d="M103.21 6.00976C100.76 6.00976 98.972 7.06916 98.078 8.88996V6.47316H94.8336V21.5366H98.4754L98.5414 13.2932C98.5746 10.3466 100.197 9.25416 102.051 9.25416C103.739 9.25416 104.898 9.94936 104.931 13.1608L104.997 21.5366H108.606V12.6972C108.606 7.30096 106.388 6.00976 103.21 6.00976Z" fill="currentColor"/>
  <path fill-rule="evenodd" clip-rule="evenodd" d="M118.641 18.7889C117.217 18.7889 116.621 17.9279 116.621 15.8425V9.48586L120.958 9.45266V6.44006H116.621V1.00006H112.979V6.47326H111.125V9.51886H112.979V16.1073C112.979 20.3117 114.403 22.0001 117.647 22.0001C119.501 22.0001 121.057 21.5035 122.018 20.7751L121.157 17.8289C120.428 18.4579 119.601 18.7889 118.641 18.7889Z" fill="currentColor"/>
  <path fill-rule="evenodd" clip-rule="evenodd" d="M131.784 18.59C129.235 18.59 127.348 16.703 127.414 13.9884C127.48 11.3398 129.235 9.41964 131.784 9.41964C134.366 9.41964 136.121 11.3068 136.154 13.9884C136.22 16.703 134.366 18.59 131.784 18.59ZM131.784 6.00984C127.149 6.00984 123.64 9.15484 123.64 14.0546C123.64 18.9212 127.083 22 131.784 22C136.485 22 139.928 18.9212 139.928 14.0546C139.928 9.15484 136.419 6.00984 131.784 6.00984Z" fill="currentColor"/>
  <path fill-rule="evenodd" clip-rule="evenodd" d="M151.469 6.00976C149.019 6.00976 147.232 7.06916 146.338 8.88996V6.47316H143.093V21.5366H146.735L146.801 13.2932C146.834 10.3466 148.457 9.25416 150.311 9.25416C151.999 9.25416 153.158 9.94936 153.191 13.1608L153.257 21.5366H156.866V12.6972C156.866 7.30096 154.648 6.00976 151.469 6.00976Z" fill="currentColor"/>
  <path fill-rule="evenodd" clip-rule="evenodd" d="M162.898 0C161.706 0 160.68.9932 160.68 2.185S161.706 4.37 162.898 4.37C164.057 4.37 165.083 3.3768 165.083 2.185S164.057 0 162.898 0ZM160.945 21.5365H164.586L164.652 6.47332H160.945V21.5365Z" fill="currentColor"/>
  <path fill-rule="evenodd" clip-rule="evenodd" d="M175.856 18.59C173.307 18.59 171.419 16.703 171.486 13.9884C171.552 11.3398 173.307 9.41964 175.856 9.41964C178.438 9.41964 180.193 11.3068 180.226 13.9884C180.292 16.703 178.438 18.59 175.856 18.59ZM175.856 6.00984C171.221 6.00984 167.712 9.15484 167.712 14.0546C167.712 18.9212 171.155 22 175.856 22C180.557 22 184 18.9212 184 14.0546C184 9.15484 180.491 6.00984 175.856 6.00984Z" fill="currentColor"/>
  <path fill-rule="evenodd" clip-rule="evenodd" d="M24.1428 20.7428C23.3321 21.5536 22.2544 22 21.1079 22C19.9615 22 18.8834 21.5536 18.0727 20.7428L13.7001 16.3702L9.32745 20.7428C8.51685 21.5536 7.43865 22 6.29225 22C5.14585 22 4.06805 21.5536 3.25705 20.7428C1.58098 19.0663 1.58098 16.3491 3.25705 14.6726L10.4102 7.51978C12.2319 5.53018 15.401 5.49038 17.2986 7.38778L24.143 14.6726C25.819 16.3491 25.819 19.0663 24.1428 20.7428ZM30.3055 7.25738C28.6293 5.58118 25.9116 5.58118 24.2353 7.25738L21.8957 9.59698L18.4041 6.10538C15.8051 3.24918 11.4657 3.22518 8.99625 6.10538L1.84305 13.2584C-.61435 15.7158-.61435 19.6998 1.84305 22.157C4.30025 24.6144 8.28445 24.6144 10.7416 22.157L13.7001 19.1986L16.6587 22.157C19.1161 24.6144 23.0999 24.6144 25.5571 22.157C27.1357 20.5786 27.6982 18.3704 27.2488 16.3412L31.6271 20.7194C33.3035 22.3954 36.0208 22.3954 37.697 20.7194C39.3735 19.043 39.3735 16.3256 37.697 14.6492L30.3055 7.25738Z" fill="currentColor"/>
</svg>
