<svg xmlns="http://www.w3.org/2000/svg" fill="none" class="logo__image" viewBox="0 0 116 20"><path fill="#0078d2" d="M65.791 13.052a5.3 5.3 0 0 1-1.907-.318l-2.558 2.709v-6.91c0-2.343 1.24-4.527 4.465-4.527 3.226 0 4.473 2.184 4.473 4.527s-1.24 4.519-4.473 4.519m-19.29 0c-3.234 0-4.473-2.177-4.473-4.52s1.24-4.529 4.473-4.529 4.473 2.184 4.473 4.526c0 2.343-1.24 4.523-4.473 4.523m-19.441 0c-3.234 0-4.473-2.177-4.473-4.52s1.24-4.529 4.473-4.529 4.475 2.187 4.475 4.53c0 2.342-1.241 4.519-4.475 4.519M65.79.004c-4.751 0-8.109 1.85-9.645 4.693C54.612 1.855 51.252.004 46.5.004c-4.827 0-8.223 1.914-9.725 4.838C35.283 1.918 31.89.004 27.06.004c-6.642 0-10.584 3.621-10.584 8.529a8.6 8.6 0 0 0 .175 1.715c-.731 1.231-2.304 2.804-6.07 2.804-3.234 0-4.473-2.177-4.473-4.52s1.241-4.529 4.474-4.529c1.86 0 3.05.739 3.727 1.806l2.598-4.344A13.04 13.04 0 0 0 10.582.004C3.932.004 0 3.625 0 8.533s3.932 8.529 10.582 8.529c4.044 0 6.693-1.144 8.446-2.645 1.82 1.652 4.552 2.645 8.032 2.645 4.83 0 8.223-1.914 9.718-4.844 1.501 2.93 4.89 4.844 9.724 4.844 4.672 0 8.009-1.795 9.574-4.567V20h5.252v-3.59c1.445.45 2.951.669 4.465.652 6.65 0 10.582-3.621 10.582-8.53 0-4.907-3.934-8.528-10.584-8.528"/><path fill="#0e0f0c" d="M82.378 2.197h1.03v11.847h-1.03zm12.775 3.97a2.48 2.48 0 0 1-.93 2.08 4.18 4.18 0 0 1-2.645.732h-1.05v3.51h-1.04v-8.92h2.317c2.23 0 3.35.866 3.35 2.597zM90.529 8.09h.937a3.44 3.44 0 0 0 1.995-.445 1.62 1.62 0 0 0 .62-1.419 1.55 1.55 0 0 0-.58-1.318 3.02 3.02 0 0 0-1.811-.437H90.53v3.621zm9.899 4.4-.199-.946h-.055a2.9 2.9 0 0 1-.993.85c-.393.161-.816.237-1.24.222a2.25 2.25 0 0 1-1.565-.507 1.9 1.9 0 0 1-.564-1.462q0-2.031 3.241-2.128l1.137-.04v-.411a1.66 1.66 0 0 0-.342-1.161 1.38 1.38 0 0 0-1.081-.375c-.66.026-1.306.2-1.89.51l-.31-.77a4.7 4.7 0 0 1 1.08-.43 5 5 0 0 1 1.184-.15 2.58 2.58 0 0 1 1.772.532 2.23 2.23 0 0 1 .579 1.699v4.566zm-2.283-.708a2.04 2.04 0 0 0 1.486-.525 1.9 1.9 0 0 0 .54-1.445v-.603l-1.017.04a3.6 3.6 0 0 0-1.737.373 1.13 1.13 0 0 0-.532 1.032 1.05 1.05 0 0 0 .333.842c.265.205.596.306.93.286zm9.16.706V8.165a1.76 1.76 0 0 0-.373-1.225 1.51 1.51 0 0 0-1.168-.405 1.93 1.93 0 0 0-1.545.572 2.85 2.85 0 0 0-.484 1.87v3.503h-1.017V5.8h.826l.159.913h.056a2.05 2.05 0 0 1 .874-.762 2.8 2.8 0 0 1 1.248-.27 2.53 2.53 0 0 1 1.819.58c.225.252.395.548.5.869.106.321.144.66.112.997v4.36h-1.009zm3.544-3.422q.373-.51.795-.977l2.168-2.287h1.195l-2.71 2.85 2.903 3.836h-1.231l-2.36-3.16-.763.659v2.501h-1.001V2.99h1.001v5.043c0 .223-.016.564-.047 1.032h.05"/></svg>