<svg xmlns="http://www.w3.org/2000/svg" xml:space="preserve" viewBox="-249.8 129 1091.2 244"><path d="M735.1 355.8v-50.1c0-17.2 3.2-28.1 13.5-37.3 13.1-11.9 31.4-11.7 31.4-11.7v-37.1c-39.1 0-46.7 21.7-46.7 21.7L722.1 223h-23.4v132.8zM5.2 359.3c34.8 0 43.9-21.7 43.9-21.7l11.2 18.3h23.4V223.1H47.3V289c0 17.2-5.3 28.4-13.7 33.7-4.1 2.7-10.7 3.9-16.9 3.9-21 0-26.3-11.9-26.3-31.6v-71.9h-36.6v82.6c.1 37.1 18.6 53.6 51.4 53.6m470.1-139.7q.3 0 0 0c-34.8 0-43.9 21.7-43.9 21.7l-11-18.3H397v132.8h36.4v-65.7c0-17.2 5.3-28.4 13.7-33.7 4.1-2.7 10.7-3.9 16.9-3.9 21 0 26.3 11.9 26.3 31.6v71.7h36.4v-82.6c-.1-37.1-18.5-53.6-51.4-53.6m-201.7 0c-33.6 0-43.3 19.9-43.5 20.1l-.7 1.6-.9-1.4c-9.1-13.7-22-20.2-43.5-20.2-33.6 0-43.3 19.9-43.5 20.1l-.7 1.6-11.2-18.3h-23.4v132.8h36.4v-65.7c0-25.7 8.9-37.6 27.7-37.6 16.7 0 24.5 9.9 24.5 31.2v72.1h36.4v-66.6c0-25 8.7-36.8 27.2-36.8 10.8 0 25 3.2 25 31.6v71.7h36.4v-82.6c.2-37.1-14.2-53.6-46.2-53.6m-424.3 98.3V169.7h-37.8v186.1h129.8V318h-92zm481-148.2 27 27 27-27-27-27zm8.1 53.2h37.8v132.8h-37.8zm273.3-3.3c-21.5 0-39.8 7.1-53.1 20.6-12.4 12.6-19.2 30.2-19.2 49.2s6.7 36.6 19.2 49.2c13.1 13.5 31.6 20.8 53.1 20.8 42.6 0 72.4-28.8 72.4-70s-29.8-69.8-72.4-69.8m-.2 108.8c-20.8 0-35.7-16.3-35.7-38.9 0-22.2 15.3-38.9 35.7-38.9 20.8 0 36.2 16.7 36.2 38.9 0 22.4-15.2 38.9-36.2 38.9" style="fill:#481335"/></svg>