<svg xmlns="http://www.w3.org/2000/svg" viewBox="0 0 32 32"><rect width="32" height="32" fill="#6abf4b" rx="6"/><g clip-path="url(#a)"><path fill="#fff" d="m9.614 13.135-1.51 1.126c-.71-.615-1.632-.733-2.14-.733-.51 0-1.047.148-1.128.514-.082.356.251.633.821.789.652.174 1.24.33 2.155.588 1.355.389 2.284.974 2.284 2.332 0 1.877-1.666 2.847-3.895 2.847S2.455 19.44 2 18.9l1.595-1.192c1.122.977 1.9 1.114 2.551 1.114.748 0 1.447-.159 1.536-.58.074-.341-.207-.612-.844-.76-.718-.166-1.329-.3-2.006-.477-1.84-.482-2.358-1.551-2.358-2.514 0-1.321 1.229-2.68 3.483-2.68 2.306 0 3.657 1.322 3.657 1.325m9.621-1.192h-6.73v8.407h6.853v-1.94h-4.49v-1.355h3.09v-1.854h-3.09v-1.34h4.364v-1.918zm-8.47 10.347h.523V10h-.522zm9.477 0h.522V10h-.522zm1.74-1.94h5.405c1.443 0 2.617-.87 2.617-2.265 0-1.089-.711-1.81-1.71-2.129a.4.4 0 0 0-.097-.011c.034-.004.067-.007.097-.018.573-.226 1.203-.83 1.203-1.855 0-1.303-1.152-2.132-2.573-2.132h-4.946zm2.373-6.66h1.888c.433 0 .785.345.785.737 0 .393-.352.74-.785.74h-1.888zm2.306 4.794h-2.31v-1.532h2.31c.407 0 .74.33.74.766 0 .433-.33.766-.74.766"/></g><defs><clipPath id="a"><path d="M2 10h28v12.293H2z"/></clipPath></defs></svg>